<svg xmlns="http://www.w3.org/2000/svg" xmlns:xlink="http://www.w3.org/1999/xlink" width="1080" zoomAndPan="magnify" viewBox="0 0 810 809.999993" height="1080" preserveAspectRatio="xMidYMid meet" version="1.0"><defs><g/><clipPath id="42ad727137"><path d="M 81 357 L 236 357 L 236 510.140625 L 81 510.140625 Z M 81 357 " clip-rule="nonzero"/></clipPath><clipPath id="fa296a9fc3"><path d="M 616 13.945312 L 728.210938 13.945312 L 728.210938 116 L 616 116 Z M 616 13.945312 " clip-rule="nonzero"/></clipPath><clipPath id="f9498f5ff6"><path d="M 614.503906 15 L 673 15 L 673 138.40625 L 614.503906 138.40625 Z M 614.503906 15 " clip-rule="nonzero"/></clipPath><clipPath id="c5f5559f5b"><path d="M 616 13.945312 L 728.21875 13.945312 L 728.21875 116 L 616 116 Z M 616 13.945312 " clip-rule="nonzero"/></clipPath><clipPath id="055b5000d5"><path d="M 151 87.257812 L 673 87.257812 L 673 411 L 151 411 Z M 151 87.257812 " clip-rule="nonzero"/></clipPath><clipPath id="3cade44cc9"><path d="M 84.320312 357 L 237 357 L 237 447.375 L 84.320312 447.375 Z M 84.320312 357 " clip-rule="nonzero"/></clipPath><clipPath id="096b348c4a"><path d="M 617 87.257812 L 685.066406 87.257812 L 685.066406 115 L 617 115 Z M 617 87.257812 " clip-rule="nonzero"/></clipPath></defs><g fill="#ffffff" fill-opacity="1"><g transform="translate(228.654644, 739.891159)"><g><path d="M 20.339844 -107.695312 C 29.058594 -107.695312 35.050781 -113.144531 35.050781 -121.136719 C 35.050781 -129.125 29.058594 -134.574219 20.339844 -134.574219 C 11.804688 -134.574219 5.992188 -129.125 5.992188 -121.136719 C 5.992188 -113.144531 11.804688 -107.695312 20.339844 -107.695312 Z M 8.898438 0 L 31.964844 0 L 31.964844 -92.441406 L 8.898438 -92.441406 Z M 8.898438 0 "/></g></g></g><g fill="#ffffff" fill-opacity="1"><g transform="translate(269.697459, 739.891159)"><g><path d="M 53.9375 0 L 82.089844 0 L 136.210938 -92.441406 L 111.148438 -92.441406 L 68.285156 -16.34375 L 68.105469 -16.34375 L 25.242188 -92.441406 L 0 -92.441406 Z M 53.9375 0 "/></g></g></g><g fill="#ffffff" fill-opacity="1"><g transform="translate(405.901494, 739.891159)"><g><path d="M 74.644531 3.449219 C 116.957031 3.449219 144.382812 -16.164062 144.382812 -46.128906 C 144.382812 -76.09375 116.957031 -95.710938 74.644531 -95.710938 C 32.507812 -95.710938 5.085938 -76.09375 5.085938 -46.128906 C 5.085938 -16.164062 32.507812 3.449219 74.644531 3.449219 Z M 74.644531 -13.074219 C 46.492188 -13.074219 27.96875 -26.152344 27.96875 -46.128906 C 27.96875 -66.105469 46.492188 -79.183594 74.644531 -79.183594 C 102.792969 -79.183594 121.316406 -66.105469 121.316406 -46.128906 C 121.316406 -26.152344 102.792969 -13.074219 74.644531 -13.074219 Z M 74.644531 -13.074219 "/></g></g></g><g fill="#ffffff" fill-opacity="1"><g transform="translate(555.362732, 739.891159)"><g><path d="M 7.265625 0 L 30.148438 0 L 30.148438 -134.210938 L 7.265625 -134.210938 Z M 7.265625 0 "/></g></g></g><g fill="#ffffff" fill-opacity="1"><g transform="translate(592.773443, 739.891159)"><g><path d="M 53.9375 0 L 82.089844 0 L 136.210938 -92.441406 L 111.148438 -92.441406 L 68.285156 -16.34375 L 68.105469 -16.34375 L 25.242188 -92.441406 L 0 -92.441406 Z M 53.9375 0 "/></g></g></g><path fill="#ffffff" d="M 670.476562 96.457031 C 669.199219 99.109375 667.308594 103.0625 664.757812 108.203125 C 659.667969 118.484375 652.054688 133.59375 641.425781 152.496094 C 630.78125 171.375 617.125 194.101562 599.40625 218.917969 C 590.566406 231.324219 580.632812 244.191406 569.515625 257.203125 C 558.359375 270.167969 545.980469 283.253906 532.121094 295.796875 C 518.261719 308.328125 502.90625 320.308594 485.925781 330.675781 C 468.957031 341.042969 450.347656 349.753906 430.398438 355.59375 C 410.457031 361.441406 389.210938 364.40625 367.324219 363.691406 C 365.957031 363.640625 364.589844 363.585938 363.21875 363.523438 L 361.15625 363.445312 L 359.097656 363.285156 C 356.355469 363.050781 353.550781 362.925781 350.878906 362.550781 C 348.175781 362.222656 345.460938 361.960938 342.769531 361.460938 C 341.425781 361.25 340.074219 361.027344 338.722656 360.816406 C 337.371094 360.589844 336.035156 360.265625 334.691406 360 C 323.949219 357.796875 313.324219 354.570312 303.046875 350.304688 C 293.96875 346.511719 285.199219 341.839844 276.878906 336.417969 C 275.796875 335.710938 274.71875 334.996094 273.648438 334.261719 C 271.28125 332.738281 269.101562 330.964844 266.824219 329.308594 L 265.976562 328.679688 L 263.527344 326.664062 C 262.445312 325.761719 261.332031 324.902344 260.269531 323.972656 C 259.222656 323.03125 258.175781 322.089844 257.128906 321.148438 L 255.546875 319.742188 L 254.042969 318.253906 C 253.492188 317.710938 252.941406 317.171875 252.390625 316.628906 C 251.933594 316.183594 251.476562 315.734375 251.015625 315.28125 C 250.023438 314.277344 249.09375 313.214844 248.125 312.1875 C 246.152344 310.160156 244.378906 307.957031 242.542969 305.800781 C 241.597656 304.746094 240.78125 303.589844 239.910156 302.46875 C 239.058594 301.339844 238.171875 300.238281 237.335938 299.089844 C 236.53125 297.929688 235.726562 296.769531 234.917969 295.597656 L 233.703125 293.855469 L 232.582031 292.046875 C 231.828125 290.851562 231.074219 289.652344 230.320312 288.449219 C 229.605469 287.21875 228.933594 285.964844 228.234375 284.734375 C 226.777344 282.289062 225.613281 279.695312 224.316406 277.164062 C 223.980469 276.539062 223.699219 275.882812 223.417969 275.226562 L 222.566406 273.273438 L 221.707031 271.316406 C 221.414062 270.667969 221.128906 270.015625 220.894531 269.339844 C 219.914062 266.664062 218.789062 264.03125 217.988281 261.28125 C 217.554688 259.917969 217.085938 258.5625 216.671875 257.195312 C 216.300781 255.8125 215.929688 254.425781 215.558594 253.035156 C 212.582031 241.945312 211.230469 230.335938 211.144531 218.558594 L 211.109375 216.347656 C 211.097656 215.613281 211.160156 214.875 211.183594 214.136719 C 211.238281 212.65625 211.292969 211.179688 211.347656 209.703125 C 211.355469 208.964844 211.417969 208.230469 211.496094 207.488281 L 211.695312 205.285156 C 211.84375 203.8125 211.90625 202.328125 212.113281 200.867188 C 212.316406 199.398438 212.523438 197.933594 212.726562 196.464844 C 212.835938 195.730469 212.90625 194.996094 213.039062 194.269531 L 213.457031 192.085938 C 213.730469 190.625 214.003906 189.167969 214.277344 187.707031 C 214.625 186.273438 214.976562 184.820312 215.324219 183.378906 C 218.085938 171.816406 222.558594 160.628906 228.203125 149.996094 C 231.125 144.742188 234.222656 139.542969 237.824219 134.65625 C 239.523438 132.144531 241.476562 129.8125 243.339844 127.410156 C 244.273438 126.210938 245.324219 125.101562 246.304688 123.9375 C 247.304688 122.789062 248.273438 121.609375 249.355469 120.535156 L 252.507812 117.214844 C 253.570312 116.128906 254.707031 115.113281 255.796875 114.050781 L 257.441406 112.46875 C 257.980469 111.9375 258.582031 111.464844 259.148438 110.960938 L 262.578125 107.96875 C 263.75 107.007812 264.957031 106.085938 266.136719 105.144531 L 267.914062 103.730469 C 268.511719 103.269531 269.144531 102.847656 269.753906 102.402344 L 273.429688 99.757812 L 277.222656 97.292969 L 279.113281 96.058594 C 279.753906 95.671875 280.410156 95.304688 281.058594 94.925781 L 284.949219 92.648438 L 288.9375 90.570312 L 290.921875 89.527344 C 291.59375 89.195312 292.28125 88.902344 292.957031 88.582031 L 297.023438 86.703125 C 298.394531 86.109375 299.789062 85.589844 301.167969 85.015625 C 303.902344 83.820312 306.753906 82.972656 309.542969 81.953125 C 320.839844 78.273438 332.523438 76.089844 344.265625 75.222656 C 356.035156 74.460938 367.808594 75.101562 379.207031 77.125 C 390.617188 79.140625 401.6875 82.519531 412.152344 87.125 C 413.492188 87.640625 414.753906 88.308594 416.035156 88.929688 C 417.324219 89.554688 418.605469 90.175781 419.886719 90.796875 C 421.175781 91.417969 422.382812 92.171875 423.636719 92.84375 C 424.882812 93.535156 426.125 94.222656 427.367188 94.910156 C 428.566406 95.671875 429.769531 96.425781 430.96875 97.183594 L 432.773438 98.316406 C 433.378906 98.683594 433.980469 99.054688 434.546875 99.476562 C 435.707031 100.296875 436.859375 101.113281 438.015625 101.925781 C 439.171875 102.742188 440.347656 103.527344 441.433594 104.4375 L 442.257812 105.09375 C 442.460938 105.25 442.390625 105.191406 442.414062 105.203125 L 442.4375 105.203125 C 442.484375 105.210938 442.507812 105.203125 442.566406 105.226562 C 442.722656 105.304688 442.867188 105.394531 443.019531 105.480469 C 443.328125 105.667969 443.660156 105.859375 443.988281 106.09375 C 444.328125 106.320312 444.675781 106.5625 445.023438 106.847656 C 445.195312 106.980469 445.394531 107.128906 445.554688 107.277344 L 445.296875 107.699219 C 444.9375 108.296875 444.515625 108.957031 444.015625 109.691406 L 443.636719 110.257812 L 443.582031 110.332031 C 443.546875 110.371094 443.605469 110.328125 443.414062 110.523438 L 442.574219 111.414062 L 440.90625 113.175781 C 438.679688 115.527344 436.460938 117.871094 434.253906 120.207031 C 368.335938 189.945312 309.300781 253.960938 259.21875 309.113281 L 261.144531 311 L 262.492188 312.328125 L 263.878906 313.570312 L 266.996094 316.375 C 267.539062 316.847656 268.105469 317.304688 268.667969 317.757812 C 269.121094 318.125 269.574219 318.492188 270.023438 318.867188 L 272.226562 320.679688 L 272.824219 321.121094 C 273.621094 321.703125 274.410156 322.296875 275.191406 322.882812 C 276.574219 323.925781 277.878906 324.917969 279.132812 325.714844 L 279.382812 325.890625 C 280.386719 326.578125 281.402344 327.253906 282.421875 327.914062 L 284.589844 329.328125 C 354.363281 264.941406 517.46875 109.417969 519.316406 107.382812 C 519.554688 107.246094 519.207031 107.101562 519.15625 106.960938 L 518.792969 106.53125 L 518.066406 105.679688 L 516.613281 103.96875 L 513.703125 100.539062 C 509.832031 95.992188 505.945312 91.433594 502.050781 86.859375 L 499.128906 83.4375 C 498.636719 82.871094 498.175781 82.292969 497.640625 81.738281 L 496.027344 80.082031 C 493.859375 77.859375 491.691406 75.640625 489.523438 73.417969 L 486.253906 70.074219 C 485.140625 68.964844 483.957031 67.902344 482.808594 66.816406 C 481.613281 65.734375 480.3125 64.671875 479.074219 63.597656 L 476.195312 61.148438 C 452.277344 40.96875 422.542969 26.347656 390.398438 19.648438 C 374.332031 16.296875 357.726562 14.929688 341.0625 15.632812 C 324.386719 16.441406 307.589844 19.246094 291.304688 24.273438 C 287.269531 25.628906 283.175781 26.855469 279.214844 28.480469 C 277.226562 29.261719 275.21875 30.007812 273.242188 30.828125 C 271.28125 31.703125 269.324219 32.570312 267.367188 33.445312 C 266.386719 33.894531 265.398438 34.3125 264.4375 34.78125 L 261.558594 36.230469 C 259.640625 37.203125 257.714844 38.167969 255.8125 39.167969 C 253.9375 40.238281 252.066406 41.296875 250.191406 42.363281 C 249.257812 42.90625 248.316406 43.425781 247.390625 43.988281 L 244.65625 45.714844 C 242.835938 46.878906 241.003906 48.035156 239.195312 49.222656 C 237.429688 50.472656 235.664062 51.71875 233.894531 52.96875 C 233.011719 53.59375 232.117188 54.210938 231.253906 54.867188 L 228.6875 56.859375 C 226.984375 58.203125 225.257812 59.527344 223.578125 60.898438 L 218.636719 65.167969 C 217.820312 65.886719 216.976562 66.574219 216.1875 67.328125 L 213.816406 69.570312 C 212.246094 71.085938 210.636719 72.5625 209.109375 74.121094 L 204.582031 78.859375 C 203.050781 80.421875 201.640625 82.089844 200.207031 83.742188 C 198.796875 85.402344 197.320312 87.019531 195.972656 88.726562 C 193.285156 92.164062 190.535156 95.542969 188.085938 99.144531 C 182.980469 106.183594 178.527344 113.648438 174.421875 121.253906 C 166.40625 136.5625 160.230469 152.761719 156.496094 169.40625 C 156.039062 171.480469 155.578125 173.558594 155.117188 175.632812 C 154.757812 177.730469 154.398438 179.824219 154.039062 181.910156 L 153.507812 185.050781 C 153.347656 186.097656 153.242188 187.144531 153.105469 188.199219 C 152.859375 190.296875 152.613281 192.394531 152.363281 194.488281 C 152.125 196.585938 152.039062 198.695312 151.882812 200.792969 L 151.671875 203.9375 C 151.597656 204.984375 151.539062 206.03125 151.535156 207.082031 C 151.5 209.179688 151.464844 211.273438 151.429688 213.363281 C 151.425781 214.414062 151.378906 215.453125 151.410156 216.496094 L 151.515625 219.632812 C 152.011719 236.316406 154.453125 252.949219 159.195312 268.792969 C 159.796875 270.769531 160.398438 272.746094 160.996094 274.714844 C 161.652344 276.671875 162.371094 278.601562 163.0625 280.535156 C 164.382812 284.433594 166.0625 288.179688 167.628906 291.953125 C 168.011719 292.898438 168.445312 293.828125 168.894531 294.742188 L 170.214844 297.507812 L 171.539062 300.257812 C 171.976562 301.179688 172.421875 302.09375 172.917969 302.976562 C 174.875 306.539062 176.722656 310.148438 178.890625 313.550781 C 179.945312 315.273438 180.976562 317.003906 182.0625 318.695312 C 183.191406 320.355469 184.320312 322.015625 185.445312 323.671875 L 187.140625 326.148438 L 188.941406 328.546875 C 190.144531 330.132812 191.347656 331.726562 192.546875 333.304688 C 193.777344 334.863281 195.074219 336.371094 196.335938 337.894531 C 197.613281 339.402344 198.847656 340.953125 200.207031 342.378906 C 202.871094 345.285156 205.5 348.203125 208.332031 350.90625 C 209.730469 352.269531 211.09375 353.667969 212.523438 354.984375 C 213.488281 355.855469 214.453125 356.71875 215.417969 357.589844 C 215.898438 358.023438 216.378906 358.449219 216.859375 358.886719 L 219.027344 360.820312 L 221.269531 362.65625 C 222.765625 363.878906 224.257812 365.09375 225.75 366.308594 C 227.257812 367.503906 228.820312 368.617188 230.351562 369.769531 L 232.65625 371.46875 L 233.8125 372.324219 L 234.996094 373.125 C 235.25 373.292969 235.5 373.464844 235.753906 373.632812 C 238.664062 375.582031 241.527344 377.59375 244.53125 379.347656 C 257.414062 387.261719 270.90625 393.695312 284.691406 398.550781 C 298.480469 403.382812 312.519531 406.742188 326.488281 408.707031 C 328.234375 408.9375 329.972656 409.226562 331.71875 409.40625 C 333.464844 409.578125 335.210938 409.746094 336.953125 409.917969 C 340.425781 410.3125 343.902344 410.449219 347.363281 410.628906 C 350.839844 410.859375 354.203125 410.8125 357.59375 410.867188 L 360.125 410.890625 L 362.660156 410.828125 C 364.347656 410.78125 366.027344 410.734375 367.707031 410.6875 C 381.140625 410.175781 394.359375 408.589844 407.117188 405.929688 C 419.871094 403.289062 432.175781 399.636719 443.863281 395.1875 C 467.261719 386.277344 488.09375 374.1875 506.277344 360.726562 C 524.472656 347.25 540.117188 332.425781 553.738281 317.421875 C 567.371094 302.402344 579.035156 287.171875 589.253906 272.34375 C 599.414062 257.476562 608.183594 243.023438 615.777344 229.242188 C 630.988281 201.671875 641.859375 176.988281 650.046875 156.625 C 658.199219 136.242188 663.636719 120.140625 667.195312 109.191406 C 668.976562 103.714844 670.257812 99.523438 671.117188 96.707031 C 671.964844 93.882812 672.402344 92.4375 672.402344 92.4375 C 672.402344 92.4375 671.746094 93.804688 670.476562 96.457031 " fill-opacity="1" fill-rule="nonzero"/><g clip-path="url(#42ad727137)"><path fill="#ffffff" d="M 233.8125 372.324219 L 232.65625 371.46875 L 230.351562 369.769531 C 228.820312 368.617188 227.257812 367.503906 225.75 366.308594 C 224.257812 365.09375 222.765625 363.878906 221.269531 362.65625 L 219.027344 360.820312 L 216.859375 358.886719 C 216.378906 358.449219 215.898438 358.023438 215.417969 357.589844 C 130.695312 451.875 81.035156 510.125 81.035156 510.125 C 81.035156 510.125 140.195312 459.644531 235.753906 373.632812 C 235.5 373.464844 235.25 373.292969 234.996094 373.125 L 233.8125 372.324219 " fill-opacity="1" fill-rule="nonzero"/></g><g clip-path="url(#fa296a9fc3)"><path fill="#ffffff" d="M 702.632812 13.949219 L 616.554688 72.871094 L 678.777344 77.105469 L 728.242188 115.113281 L 702.632812 13.949219 " fill-opacity="1" fill-rule="nonzero"/></g><g clip-path="url(#f9498f5ff6)"><path fill="#ff8800" d="M 670.480469 96.457031 C 669.203125 99.109375 667.3125 103.0625 664.761719 108.203125 C 659.671875 118.484375 652.058594 133.59375 641.429688 152.496094 C 630.789062 171.375 617.128906 194.101562 599.414062 218.917969 C 590.570312 231.324219 580.636719 244.191406 569.519531 257.203125 C 558.363281 270.167969 545.984375 283.253906 532.125 295.796875 C 518.265625 308.328125 502.914062 320.308594 485.929688 330.675781 C 468.960938 341.042969 450.351562 349.753906 430.402344 355.59375 C 410.460938 361.441406 389.214844 364.40625 367.328125 363.691406 C 365.960938 363.640625 364.59375 363.585938 363.222656 363.523438 L 361.164062 363.445312 L 359.101562 363.285156 C 356.359375 363.050781 353.558594 362.925781 350.882812 362.550781 C 348.179688 362.222656 345.464844 361.960938 342.773438 361.460938 C 341.429688 361.25 340.078125 361.027344 338.726562 360.816406 C 337.375 360.589844 336.042969 360.265625 334.695312 360 C 323.953125 357.796875 313.328125 354.570312 303.054688 350.304688 C 293.972656 346.511719 285.203125 341.839844 276.882812 336.417969 C 275.800781 335.710938 274.722656 334.996094 273.65625 334.261719 C 271.289062 332.738281 269.105469 330.964844 266.828125 329.308594 L 265.980469 328.679688 L 265.164062 328.007812 L 263.535156 326.664062 C 262.453125 325.761719 261.335938 324.902344 260.277344 323.972656 C 259.226562 323.03125 258.179688 322.089844 257.132812 321.148438 L 255.550781 319.742188 L 254.046875 318.253906 C 253.496094 317.710938 252.945312 317.171875 252.394531 316.628906 C 251.941406 316.183594 251.480469 315.734375 251.023438 315.28125 C 250.027344 314.277344 249.097656 313.214844 248.128906 312.1875 C 246.15625 310.160156 244.382812 307.957031 242.546875 305.800781 C 241.601562 304.746094 240.785156 303.589844 239.917969 302.46875 C 239.0625 301.339844 238.175781 300.238281 237.339844 299.089844 C 236.539062 297.929688 235.730469 296.769531 234.925781 295.597656 L 233.707031 293.855469 L 232.585938 292.046875 C 231.832031 290.851562 231.082031 289.652344 230.324219 288.449219 C 229.609375 287.21875 228.941406 285.964844 228.238281 284.734375 C 226.78125 282.289062 225.621094 279.695312 224.320312 277.164062 C 223.984375 276.539062 223.703125 275.882812 223.425781 275.226562 L 222.574219 273.273438 L 221.710938 271.316406 C 221.417969 270.667969 221.132812 270.015625 220.898438 269.339844 C 219.917969 266.664062 218.796875 264.03125 217.992188 261.28125 C 217.558594 259.917969 217.089844 258.5625 216.675781 257.195312 C 216.304688 255.8125 215.9375 254.425781 215.5625 253.035156 C 212.585938 241.945312 211.234375 230.335938 211.148438 218.558594 L 211.113281 216.347656 C 211.105469 215.613281 211.167969 214.875 211.1875 214.136719 C 211.242188 212.65625 211.296875 211.179688 211.355469 209.703125 C 211.363281 208.964844 211.425781 208.230469 211.5 207.488281 L 211.699219 205.285156 C 211.847656 203.8125 211.910156 202.328125 212.117188 200.867188 C 212.320312 199.398438 212.527344 197.933594 212.734375 196.464844 C 212.839844 195.730469 212.914062 194.996094 213.042969 194.269531 L 213.460938 192.085938 C 213.738281 190.625 214.011719 189.167969 214.285156 187.707031 C 214.628906 186.273438 214.980469 184.820312 215.328125 183.378906 C 218.089844 171.816406 222.5625 160.628906 228.207031 149.996094 C 231.128906 144.742188 234.230469 139.542969 237.828125 134.65625 C 239.527344 132.144531 241.484375 129.8125 243.34375 127.410156 C 244.277344 126.210938 245.328125 125.101562 246.308594 123.9375 C 247.3125 122.789062 248.277344 121.609375 249.363281 120.535156 L 252.511719 117.214844 C 253.578125 116.128906 254.710938 115.113281 255.800781 114.050781 L 257.445312 112.46875 C 257.988281 111.9375 258.585938 111.464844 259.15625 110.960938 L 262.585938 107.96875 C 263.753906 107.007812 264.960938 106.085938 266.144531 105.144531 L 267.917969 103.730469 C 268.515625 103.269531 269.148438 102.847656 269.757812 102.402344 L 273.433594 99.757812 L 277.226562 97.292969 L 279.117188 96.058594 C 279.757812 95.671875 280.414062 95.304688 281.066406 94.925781 L 284.953125 92.648438 L 288.941406 90.570312 L 290.929688 89.527344 C 291.597656 89.195312 292.285156 88.902344 292.964844 88.582031 L 297.03125 86.703125 C 298.402344 86.109375 299.796875 85.589844 301.171875 85.015625 C 303.90625 83.820312 306.761719 82.972656 309.550781 81.953125 C 320.84375 78.273438 332.527344 76.089844 344.269531 75.222656 C 356.039062 74.460938 367.8125 75.101562 379.214844 77.125 C 390.621094 79.140625 401.695312 82.519531 412.160156 87.125 C 413.5 87.640625 414.761719 88.308594 416.039062 88.929688 C 417.332031 89.554688 418.609375 90.175781 419.894531 90.796875 C 421.179688 91.417969 422.386719 92.171875 423.640625 92.84375 C 424.890625 93.535156 426.128906 94.222656 427.371094 94.910156 C 428.574219 95.671875 429.773438 96.425781 430.976562 97.183594 L 432.777344 98.316406 C 433.382812 98.683594 433.984375 99.054688 434.550781 99.476562 C 435.710938 100.296875 436.867188 101.113281 438.019531 101.925781 C 439.175781 102.742188 440.351562 103.527344 441.4375 104.4375 L 442.265625 105.09375 C 442.464844 105.25 442.398438 105.191406 442.417969 105.203125 L 442.445312 105.203125 C 442.492188 105.210938 442.511719 105.203125 442.570312 105.226562 C 442.726562 105.304688 442.871094 105.394531 443.027344 105.480469 C 443.332031 105.667969 443.667969 105.859375 443.992188 106.09375 C 444.332031 106.320312 444.679688 106.5625 445.027344 106.847656 C 445.203125 106.980469 445.398438 107.128906 445.5625 107.277344 L 445.300781 107.699219 C 444.941406 108.296875 444.523438 108.957031 444.019531 109.691406 L 443.640625 110.257812 L 443.585938 110.332031 C 443.550781 110.371094 443.613281 110.328125 443.417969 110.523438 L 442.578125 111.414062 L 440.910156 113.175781 C 438.683594 115.527344 436.46875 117.871094 434.257812 120.207031 C 368.339844 189.945312 309.304688 253.960938 259.222656 309.113281 L 261.148438 311 L 262.496094 312.328125 L 263.882812 313.570312 L 267.003906 316.375 C 267.546875 316.847656 268.109375 317.304688 268.671875 317.757812 C 269.125 318.125 269.582031 318.492188 270.027344 318.867188 L 272.230469 320.679688 L 272.828125 321.121094 C 273.625 321.703125 274.414062 322.296875 275.199219 322.882812 C 276.578125 323.925781 277.882812 324.917969 279.136719 325.714844 L 279.390625 325.890625 C 280.390625 326.578125 281.40625 327.253906 282.425781 327.914062 L 284.59375 329.328125 C 354.367188 264.941406 517.472656 109.417969 519.320312 107.382812 C 519.558594 107.246094 519.214844 107.101562 519.160156 106.960938 L 518.800781 106.53125 L 518.070312 105.679688 L 516.617188 103.96875 L 513.707031 100.539062 C 509.839844 95.992188 505.949219 91.433594 502.058594 86.859375 L 499.136719 83.4375 C 498.644531 82.871094 498.183594 82.292969 497.648438 81.738281 L 496.035156 80.082031 C 493.867188 77.859375 491.695312 75.640625 489.527344 73.417969 L 486.257812 70.074219 C 485.144531 68.964844 483.964844 67.902344 482.8125 66.816406 C 481.621094 65.734375 480.320312 64.671875 479.078125 63.597656 L 476.199219 61.148438 C 452.28125 40.96875 422.546875 26.347656 390.40625 19.648438 C 374.335938 16.296875 357.730469 14.929688 341.066406 15.632812 C 324.394531 16.441406 307.59375 19.246094 291.308594 24.273438 C 287.273438 25.628906 283.179688 26.855469 279.21875 28.480469 C 277.230469 29.261719 275.222656 30.007812 273.246094 30.828125 C 271.289062 31.703125 269.332031 32.570312 267.371094 33.445312 C 266.394531 33.894531 265.40625 34.3125 264.441406 34.78125 L 261.5625 36.230469 C 259.648438 37.203125 257.722656 38.167969 255.816406 39.167969 C 253.945312 40.238281 252.074219 41.296875 250.195312 42.363281 C 249.261719 42.90625 248.320312 43.425781 247.398438 43.988281 L 244.660156 45.714844 C 242.839844 46.878906 241.007812 48.035156 239.203125 49.222656 C 237.433594 50.472656 235.667969 51.71875 233.898438 52.96875 C 233.015625 53.59375 232.121094 54.210938 231.257812 54.867188 L 228.691406 56.859375 C 226.988281 58.203125 225.261719 59.527344 223.582031 60.898438 L 218.640625 65.167969 C 217.824219 65.886719 216.980469 66.574219 216.191406 67.328125 L 213.824219 69.570312 C 212.25 71.085938 210.640625 72.5625 209.113281 74.121094 L 204.585938 78.859375 C 203.054688 80.421875 201.648438 82.089844 200.214844 83.742188 C 198.800781 85.402344 197.324219 87.019531 195.976562 88.726562 C 193.289062 92.164062 190.542969 95.542969 188.089844 99.144531 C 182.984375 106.183594 178.53125 113.648438 174.425781 121.253906 C 166.410156 136.5625 160.234375 152.761719 156.503906 169.40625 C 156.042969 171.480469 155.582031 173.558594 155.125 175.632812 C 154.765625 177.730469 154.402344 179.824219 154.042969 181.910156 L 153.511719 185.050781 C 153.351562 186.097656 153.246094 187.144531 153.113281 188.199219 C 152.863281 190.296875 152.617188 192.394531 152.367188 194.488281 C 152.132812 196.585938 152.046875 198.695312 151.886719 200.792969 L 151.679688 203.9375 C 151.601562 204.984375 151.542969 206.03125 151.539062 207.082031 C 151.503906 209.179688 151.46875 211.273438 151.4375 213.363281 C 151.429688 214.414062 151.382812 215.453125 151.414062 216.496094 L 151.519531 219.632812 C 152.015625 236.316406 154.460938 252.949219 159.199219 268.792969 C 159.800781 270.769531 160.402344 272.746094 161 274.714844 C 161.65625 276.671875 162.375 278.601562 163.066406 280.535156 C 164.386719 284.433594 166.066406 288.179688 167.636719 291.953125 C 168.019531 292.898438 168.449219 293.828125 168.898438 294.742188 L 170.222656 297.507812 L 171.542969 300.257812 C 171.984375 301.179688 172.425781 302.09375 172.921875 302.976562 C 174.878906 306.539062 176.726562 310.148438 178.894531 313.550781 C 179.949219 315.273438 180.984375 317.003906 182.066406 318.695312 C 183.195312 320.355469 184.324219 322.015625 185.449219 323.671875 L 187.148438 326.148438 L 188.945312 328.546875 C 190.148438 330.132812 191.351562 331.726562 192.550781 333.304688 C 193.785156 334.863281 195.078125 336.371094 196.339844 337.894531 C 197.617188 339.402344 198.851562 340.953125 200.210938 342.378906 C 202.878906 345.285156 205.503906 348.203125 208.335938 350.90625 C 209.734375 352.269531 211.097656 353.667969 212.53125 354.984375 C 213.492188 355.855469 214.457031 356.71875 215.421875 357.589844 C 215.902344 358.023438 216.382812 358.449219 216.863281 358.886719 L 219.03125 360.820312 L 221.273438 362.65625 C 222.769531 363.878906 224.265625 365.09375 225.753906 366.308594 C 227.261719 367.503906 228.824219 368.617188 230.355469 369.769531 L 232.664062 371.46875 L 233.816406 372.324219 L 235 373.125 C 235.253906 373.292969 235.507812 373.464844 235.757812 373.632812 C 238.671875 375.582031 241.53125 377.59375 244.535156 379.347656 C 257.417969 387.261719 270.914062 393.695312 284.695312 398.550781 C 298.488281 403.382812 312.523438 406.742188 326.492188 408.707031 C 328.238281 408.9375 329.980469 409.226562 331.726562 409.40625 C 333.472656 409.578125 335.214844 409.746094 336.957031 409.917969 C 340.429688 410.3125 343.90625 410.449219 347.367188 410.628906 C 350.847656 410.859375 354.207031 410.8125 357.597656 410.867188 L 360.128906 410.890625 L 362.664062 410.828125 C 364.351562 410.78125 366.03125 410.734375 367.714844 410.6875 C 381.144531 410.175781 394.363281 408.589844 407.121094 405.929688 C 419.878906 403.289062 432.183594 399.636719 443.867188 395.1875 C 467.269531 386.277344 488.101562 374.1875 506.28125 360.726562 C 524.480469 347.25 540.121094 332.425781 553.746094 317.421875 C 567.375 302.402344 579.039062 287.171875 589.257812 272.34375 C 599.417969 257.476562 608.1875 243.023438 615.78125 229.242188 C 630.992188 201.671875 641.863281 176.988281 650.050781 156.625 C 658.207031 136.242188 663.640625 120.140625 667.199219 109.191406 C 668.980469 103.714844 670.261719 99.523438 671.125 96.707031 C 671.96875 93.882812 672.40625 92.4375 672.40625 92.4375 C 672.40625 92.4375 671.75 93.804688 670.480469 96.457031 " fill-opacity="1" fill-rule="nonzero"/></g><g clip-path="url(#c5f5559f5b)"><path fill="#ff8800" d="M 702.636719 13.949219 L 616.5625 72.871094 L 678.785156 77.105469 L 728.246094 115.113281 L 702.636719 13.949219 " fill-opacity="1" fill-rule="nonzero"/></g><g clip-path="url(#055b5000d5)"><path fill="#ffffff" d="M 671.058594 95.996094 C 669.777344 98.648438 667.886719 102.597656 665.339844 107.738281 C 660.25 118.023438 652.636719 133.128906 642.007812 152.03125 C 631.363281 170.914062 617.707031 193.636719 599.988281 218.457031 C 591.148438 230.859375 581.210938 243.726562 570.09375 256.738281 C 558.9375 269.707031 546.5625 282.789062 532.703125 295.335938 C 518.84375 307.867188 503.488281 319.84375 486.507812 330.214844 C 469.539062 340.582031 450.929688 349.289062 430.976562 355.132812 C 411.039062 360.976562 389.789062 363.945312 367.90625 363.230469 C 366.539062 363.175781 365.167969 363.121094 363.796875 363.0625 L 361.738281 362.980469 L 359.675781 362.824219 C 356.933594 362.585938 354.132812 362.460938 351.457031 362.085938 C 348.757812 361.761719 346.039062 361.5 343.351562 361 C 342.003906 360.785156 340.65625 360.566406 339.300781 360.351562 C 337.953125 360.125 336.617188 359.804688 335.273438 359.535156 C 324.527344 357.335938 313.902344 354.109375 303.628906 349.84375 C 294.546875 346.050781 285.78125 341.375 277.460938 335.953125 C 276.378906 335.246094 275.300781 334.535156 274.230469 333.800781 C 271.863281 332.277344 269.683594 330.5 267.402344 328.84375 L 266.558594 328.214844 L 264.109375 326.199219 C 263.027344 325.300781 261.914062 324.4375 260.851562 323.511719 C 259.804688 322.570312 258.757812 321.628906 257.707031 320.6875 L 256.128906 319.277344 L 254.621094 317.789062 C 254.070312 317.246094 253.523438 316.707031 252.972656 316.167969 C 252.515625 315.71875 252.058594 315.273438 251.597656 314.816406 C 250.601562 313.816406 249.675781 312.753906 248.707031 311.726562 C 246.730469 309.699219 244.960938 307.492188 243.121094 305.335938 C 242.179688 304.28125 241.363281 303.128906 240.492188 302.007812 C 239.640625 300.878906 238.75 299.777344 237.917969 298.625 C 237.113281 297.464844 236.304688 296.304688 235.5 295.136719 L 234.285156 293.390625 L 233.164062 291.585938 C 232.410156 290.386719 231.65625 289.1875 230.898438 287.984375 C 230.1875 286.757812 229.515625 285.5 228.816406 284.273438 C 227.359375 281.828125 226.195312 279.234375 224.898438 276.699219 C 224.5625 276.074219 224.28125 275.421875 224 274.765625 L 223.148438 272.808594 L 222.289062 270.855469 C 221.992188 270.207031 221.710938 269.550781 221.476562 268.875 C 220.496094 266.199219 219.371094 263.570312 218.570312 260.816406 C 218.136719 259.457031 217.667969 258.101562 217.253906 256.730469 C 216.882812 255.351562 216.511719 253.960938 216.140625 252.574219 C 213.164062 241.484375 211.808594 229.875 211.722656 218.097656 L 211.691406 215.886719 C 211.679688 215.152344 211.742188 214.410156 211.761719 213.675781 C 211.816406 212.195312 211.871094 210.71875 211.929688 209.242188 C 211.9375 208.5 212 207.765625 212.074219 207.027344 L 212.277344 204.820312 C 212.425781 203.347656 212.488281 201.863281 212.695312 200.402344 C 212.898438 198.933594 213.101562 197.472656 213.308594 196.003906 C 213.414062 195.269531 213.488281 194.53125 213.617188 193.804688 L 214.039062 191.621094 C 214.3125 190.164062 214.585938 188.707031 214.859375 187.242188 C 215.207031 185.808594 215.554688 184.359375 215.90625 182.917969 C 218.664062 171.351562 223.136719 160.164062 228.785156 149.535156 C 231.707031 144.28125 234.804688 139.078125 238.402344 134.191406 C 240.105469 131.683594 242.058594 129.351562 243.917969 126.949219 C 244.851562 125.746094 245.90625 124.640625 246.886719 123.476562 C 247.886719 122.328125 248.855469 121.148438 249.9375 120.070312 L 253.089844 116.753906 C 254.152344 115.664062 255.285156 114.648438 256.375 113.589844 L 258.019531 112.003906 C 258.5625 111.472656 259.164062 111.003906 259.730469 110.5 L 263.160156 107.507812 C 264.332031 106.542969 265.539062 105.625 266.71875 104.683594 L 268.492188 103.265625 C 269.09375 102.808594 269.722656 102.382812 270.332031 101.9375 L 274.007812 99.292969 L 277.804688 96.828125 L 279.695312 95.597656 C 280.335938 95.207031 280.992188 94.84375 281.640625 94.460938 L 285.53125 92.183594 L 289.519531 90.109375 L 291.503906 89.066406 C 292.175781 88.730469 292.863281 88.441406 293.539062 88.117188 L 297.605469 86.242188 C 298.976562 85.648438 300.371094 85.128906 301.746094 84.554688 C 304.480469 83.355469 307.335938 82.507812 310.125 81.488281 C 321.421875 77.808594 333.105469 75.625 344.847656 74.757812 C 356.613281 73.996094 368.386719 74.636719 379.789062 76.660156 C 391.199219 78.679688 402.269531 82.054688 412.734375 86.664062 C 414.074219 87.175781 415.335938 87.84375 416.617188 88.464844 C 417.90625 89.089844 419.1875 89.710938 420.46875 90.335938 C 421.757812 90.957031 422.964844 91.710938 424.214844 92.382812 C 425.464844 93.070312 426.707031 93.761719 427.945312 94.449219 C 429.148438 95.207031 430.351562 95.964844 431.550781 96.722656 L 433.351562 97.851562 C 433.960938 98.21875 434.558594 98.59375 435.128906 99.015625 C 436.289062 99.835938 437.441406 100.648438 438.597656 101.464844 C 439.75 102.277344 440.925781 103.066406 442.015625 103.976562 L 442.839844 104.628906 C 443.039062 104.789062 442.972656 104.730469 442.992188 104.742188 L 443.019531 104.742188 C 443.066406 104.75 443.085938 104.742188 443.148438 104.761719 C 443.300781 104.839844 443.449219 104.929688 443.601562 105.015625 C 443.910156 105.203125 444.242188 105.398438 444.570312 105.632812 C 444.910156 105.859375 445.257812 106.097656 445.601562 106.386719 C 445.777344 106.519531 445.976562 106.664062 446.136719 106.8125 L 445.875 107.238281 C 445.515625 107.832031 445.097656 108.496094 444.597656 109.226562 L 444.214844 109.796875 L 444.160156 109.871094 C 444.128906 109.910156 444.1875 109.863281 443.996094 110.0625 L 443.15625 110.953125 L 441.488281 112.714844 C 439.257812 115.066406 437.042969 117.40625 434.832031 119.742188 C 368.917969 189.480469 309.882812 253.5 259.796875 308.648438 L 261.726562 310.539062 L 263.070312 311.867188 L 264.457031 313.109375 L 267.578125 315.914062 C 268.121094 316.386719 268.6875 316.839844 269.246094 317.292969 C 269.699219 317.664062 270.15625 318.03125 270.605469 318.402344 L 272.808594 320.21875 L 273.40625 320.660156 C 274.203125 321.242188 274.988281 321.835938 275.773438 322.421875 C 277.15625 323.464844 278.457031 324.453125 279.710938 325.253906 L 279.964844 325.425781 C 280.96875 326.113281 281.984375 326.789062 283 327.449219 L 285.171875 328.867188 C 354.945312 264.476562 518.046875 108.953125 519.894531 106.921875 C 520.136719 106.785156 519.789062 106.636719 519.738281 106.496094 L 518.648438 105.21875 L 517.195312 103.507812 L 514.285156 100.078125 C 510.414062 95.527344 506.523438 90.96875 502.632812 86.394531 L 499.710938 82.976562 C 499.21875 82.410156 498.757812 81.828125 498.222656 81.277344 L 496.609375 79.621094 C 494.441406 77.394531 492.273438 75.179688 490.105469 72.957031 L 486.832031 69.609375 C 485.71875 68.5 484.539062 67.441406 483.390625 66.351562 C 482.195312 65.269531 480.894531 64.207031 479.65625 63.132812 L 476.777344 60.683594 C 452.855469 40.507812 423.121094 25.886719 390.980469 19.183594 C 374.914062 15.832031 358.304688 14.46875 341.644531 15.171875 C 324.96875 15.980469 308.171875 18.78125 291.882812 23.8125 C 287.851562 25.164062 283.753906 26.394531 279.796875 28.015625 C 277.808594 28.796875 275.800781 29.546875 273.820312 30.367188 C 271.863281 31.242188 269.90625 32.109375 267.945312 32.984375 C 266.96875 33.433594 265.980469 33.851562 265.015625 34.320312 L 262.140625 35.769531 C 260.222656 36.742188 258.296875 37.703125 256.390625 38.703125 C 254.519531 39.773438 252.648438 40.835938 250.773438 41.902344 C 249.839844 42.445312 248.894531 42.964844 247.972656 43.523438 L 245.234375 45.253906 C 243.417969 46.417969 241.585938 47.574219 239.777344 48.757812 C 238.011719 50.007812 236.242188 51.257812 234.472656 52.507812 C 233.59375 53.132812 232.699219 53.746094 231.832031 54.402344 L 229.269531 56.398438 C 227.5625 57.742188 225.839844 59.0625 224.15625 60.4375 L 219.21875 64.703125 C 218.402344 65.425781 217.558594 66.113281 216.769531 66.867188 L 214.398438 69.109375 C 212.828125 70.625 211.21875 72.101562 209.6875 73.65625 L 205.164062 78.394531 C 203.632812 79.957031 202.222656 81.628906 200.789062 83.277344 C 199.378906 84.941406 197.902344 86.558594 196.554688 88.265625 C 193.863281 91.703125 191.117188 95.082031 188.667969 98.679688 C 183.5625 105.722656 179.109375 113.1875 175.003906 120.792969 C 166.984375 136.101562 160.8125 152.300781 157.078125 168.945312 C 156.621094 171.019531 156.160156 173.09375 155.699219 175.171875 C 155.339844 177.269531 154.976562 179.359375 154.617188 181.449219 L 154.089844 184.585938 C 153.925781 185.632812 153.824219 186.683594 153.6875 187.738281 C 153.441406 189.832031 153.191406 191.929688 152.945312 194.027344 C 152.707031 196.125 152.621094 198.234375 152.460938 200.332031 L 152.253906 203.472656 C 152.179688 204.523438 152.117188 205.570312 152.117188 206.617188 C 152.078125 208.714844 152.046875 210.8125 152.011719 212.902344 C 152.007812 213.949219 151.960938 214.992188 151.992188 216.035156 L 152.09375 219.171875 C 152.59375 235.855469 155.035156 252.484375 159.777344 268.328125 C 160.378906 270.304688 160.976562 272.28125 161.578125 274.253906 C 162.230469 276.207031 162.953125 278.136719 163.640625 280.074219 C 164.964844 283.972656 166.640625 287.71875 168.210938 291.492188 C 168.59375 292.4375 169.027344 293.367188 169.476562 294.28125 L 170.796875 297.046875 L 172.121094 299.792969 C 172.558594 300.71875 173 301.628906 173.5 302.511719 C 175.453125 306.078125 177.300781 309.683594 179.472656 313.085938 C 180.527344 314.8125 181.558594 316.539062 182.644531 318.230469 C 183.773438 319.890625 184.902344 321.554688 186.027344 323.210938 L 187.722656 325.6875 L 189.523438 328.082031 C 190.726562 329.671875 191.925781 331.261719 193.125 332.84375 C 194.359375 334.398438 195.65625 335.90625 196.917969 337.429688 C 198.195312 338.941406 199.429688 340.488281 200.789062 341.917969 C 203.453125 344.820312 206.082031 347.742188 208.910156 350.445312 C 210.3125 351.804688 211.675781 353.207031 213.105469 354.523438 C 214.070312 355.390625 215.035156 356.257812 216 357.125 C 216.476562 357.5625 216.960938 357.988281 217.441406 358.421875 L 219.609375 360.359375 L 221.851562 362.195312 C 223.347656 363.417969 224.839844 364.632812 226.332031 365.847656 C 227.835938 367.042969 229.402344 368.15625 230.929688 369.304688 L 233.238281 371.007812 L 234.394531 371.863281 L 235.578125 372.664062 C 235.832031 372.828125 236.082031 373.003906 236.335938 373.171875 C 239.246094 375.117188 242.109375 377.128906 245.109375 378.886719 C 257.996094 386.796875 271.488281 393.234375 285.273438 398.085938 C 299.0625 402.921875 313.097656 406.28125 327.070312 408.242188 C 328.816406 408.476562 330.554688 408.761719 332.300781 408.941406 C 334.046875 409.117188 335.792969 409.285156 337.53125 409.457031 C 341.007812 409.851562 344.484375 409.984375 347.941406 410.164062 C 351.421875 410.398438 354.785156 410.351562 358.171875 410.40625 L 360.707031 410.425781 L 363.238281 410.367188 C 364.925781 410.320312 366.609375 410.273438 368.289062 410.226562 C 381.71875 409.710938 394.941406 408.128906 407.695312 405.464844 C 420.453125 402.828125 432.757812 399.175781 444.441406 394.722656 C 467.84375 385.816406 488.675781 373.722656 506.859375 360.265625 C 525.054688 346.785156 540.695312 331.964844 554.320312 316.960938 C 567.953125 301.9375 579.617188 286.710938 589.835938 271.882812 C 599.996094 257.011719 608.761719 242.558594 616.359375 228.777344 C 631.570312 201.210938 642.441406 176.527344 650.628906 156.164062 C 658.78125 135.78125 664.21875 119.679688 667.777344 108.726562 C 669.558594 103.253906 670.839844 99.058594 671.699219 96.242188 C 672.546875 93.417969 672.980469 91.976562 672.980469 91.976562 C 672.980469 91.976562 672.328125 93.339844 671.058594 95.996094 " fill-opacity="1" fill-rule="nonzero"/></g><g clip-path="url(#3cade44cc9)"><path fill="#ffffff" d="M 234.394531 371.863281 L 233.238281 371.007812 L 230.929688 369.304688 C 229.402344 368.15625 227.835938 367.042969 226.332031 365.847656 C 224.839844 364.632812 223.347656 363.417969 221.851562 362.195312 L 219.609375 360.359375 L 217.441406 358.421875 C 216.960938 357.988281 216.476562 357.5625 216 357.125 C 131.273438 451.410156 81.617188 509.664062 81.617188 509.664062 C 81.617188 509.664062 140.777344 459.183594 236.335938 373.171875 C 236.082031 373.003906 235.832031 372.828125 235.578125 372.664062 L 234.394531 371.863281 " fill-opacity="1" fill-rule="nonzero"/></g><g clip-path="url(#096b348c4a)"><path fill="#ffffff" d="M 703.214844 13.488281 L 617.136719 72.410156 L 679.359375 76.640625 L 728.824219 114.648438 L 703.214844 13.488281 " fill-opacity="1" fill-rule="nonzero"/></g><g fill="#ff8800" fill-opacity="1"><g transform="translate(81.002467, 739.981215)"><g><path d="M 77.914062 3.449219 C 104.066406 3.449219 129.3125 -4.722656 142.023438 -16.164062 L 132.761719 -29.242188 C 122.773438 -20.160156 101.523438 -13.441406 79.910156 -13.441406 C 54.667969 -13.441406 33.417969 -23.429688 30.148438 -39.046875 L 137.121094 -39.046875 C 137.667969 -41.226562 137.847656 -44.679688 137.847656 -46.675781 C 137.847656 -75.554688 110.785156 -95.710938 72.285156 -95.710938 C 32.871094 -95.710938 5.085938 -75.371094 5.085938 -46.855469 C 5.085938 -17.253906 35.414062 3.449219 77.914062 3.449219 Z M 29.605469 -53.214844 C 31.238281 -68.289062 49.21875 -79.367188 71.558594 -79.367188 C 94.257812 -79.367188 112.601562 -69.195312 114.054688 -53.214844 Z M 29.605469 -53.214844 "/></g></g></g></svg>