<svg xmlns="http://www.w3.org/2000/svg" xmlns:xlink="http://www.w3.org/1999/xlink" width="1080" zoomAndPan="magnify" viewBox="0 0 810 809.999993" height="1080" preserveAspectRatio="xMidYMid meet" version="1.0"><defs><g/><clipPath id="52af0bcdc4"><path d="M 142 292.214844 L 169 292.214844 L 169 341.714844 L 142 341.714844 Z M 142 292.214844 " clip-rule="nonzero"/></clipPath></defs><g fill="#ec7d40" fill-opacity="1"><g transform="translate(80.152097, 384.564284)"><g><path d="M 99.109375 0 L 75.375 -34.75 L 49.921875 0 L -0.484375 0 L 49.921875 -66.3125 L 0.984375 -132.625 L 53.34375 -132.625 L 76.84375 -99.109375 L 101.3125 -132.625 L 150.5 -132.625 L 101.546875 -68.03125 L 152.203125 0 Z M 99.109375 0 "/></g></g></g><g fill="#ec7d40" fill-opacity="1"><g transform="translate(231.621209, 384.564284)"><g><path d="M 150.5 -66.0625 C 150.5 -65.738281 150.253906 -61.90625 149.765625 -54.5625 L 53.34375 -54.5625 C 55.300781 -47.71875 59.09375 -42.457031 64.71875 -38.78125 C 70.351562 -35.113281 77.410156 -33.28125 85.890625 -33.28125 C 92.253906 -33.28125 97.757812 -34.175781 102.40625 -35.96875 C 107.050781 -37.757812 111.742188 -40.695312 116.484375 -44.78125 L 140.953125 -19.328125 C 128.066406 -4.972656 109.222656 2.203125 84.421875 2.203125 C 68.921875 2.203125 55.296875 -0.734375 43.546875 -6.609375 C 31.804688 -12.484375 22.710938 -20.640625 16.265625 -31.078125 C 9.828125 -41.515625 6.609375 -53.34375 6.609375 -66.5625 C 6.609375 -79.613281 9.75 -91.316406 16.03125 -101.671875 C 22.3125 -112.035156 31 -120.148438 42.09375 -126.015625 C 53.1875 -131.890625 65.664062 -134.828125 79.53125 -134.828125 C 92.738281 -134.828125 104.726562 -132.09375 115.5 -126.625 C 126.269531 -121.164062 134.796875 -113.253906 141.078125 -102.890625 C 147.359375 -92.535156 150.5 -80.257812 150.5 -66.0625 Z M 79.765625 -101.796875 C 72.585938 -101.796875 66.59375 -99.753906 61.78125 -95.671875 C 56.96875 -91.597656 53.910156 -86.054688 52.609375 -79.046875 L 106.9375 -79.046875 C 105.632812 -86.054688 102.578125 -91.597656 97.765625 -95.671875 C 92.953125 -99.753906 86.953125 -101.796875 79.765625 -101.796875 Z M 79.765625 -101.796875 "/></g></g></g><g fill="#ec7d40" fill-opacity="1"><g transform="translate(388.718411, 384.564284)"><g><path d="M 101.3125 -134.828125 C 117.78125 -134.828125 131.03125 -129.929688 141.0625 -120.140625 C 151.101562 -110.359375 156.125 -95.597656 156.125 -75.859375 L 156.125 0 L 109.625 0 L 109.625 -68.265625 C 109.625 -86.378906 102.363281 -95.4375 87.84375 -95.4375 C 79.851562 -95.4375 73.453125 -92.820312 68.640625 -87.59375 C 63.828125 -82.375 61.421875 -74.546875 61.421875 -64.109375 L 61.421875 0 L 14.921875 0 L 14.921875 -132.625 L 59.21875 -132.625 L 59.21875 -118.1875 C 64.4375 -123.570312 70.632812 -127.691406 77.8125 -130.546875 C 84.988281 -133.398438 92.820312 -134.828125 101.3125 -134.828125 Z M 101.3125 -134.828125 "/></g></g></g><g fill="#ec7d40" fill-opacity="1"><g transform="translate(559.02939, 384.564284)"><g><path d="M 155.875 -181.5625 L 155.875 0 L 111.578125 0 L 111.578125 -13.21875 C 102.929688 -2.9375 89.960938 2.203125 72.671875 2.203125 C 60.597656 2.203125 49.585938 -0.609375 39.640625 -6.234375 C 29.691406 -11.867188 21.820312 -19.90625 16.03125 -30.34375 C 10.238281 -40.78125 7.34375 -52.851562 7.34375 -66.5625 C 7.34375 -80.257812 10.238281 -92.285156 16.03125 -102.640625 C 21.820312 -113.003906 29.691406 -120.957031 39.640625 -126.5 C 49.585938 -132.050781 60.597656 -134.828125 72.671875 -134.828125 C 88.492188 -134.828125 100.726562 -130.257812 109.375 -121.125 L 109.375 -181.5625 Z M 82.46875 -34.75 C 90.457031 -34.75 97.0625 -37.5625 102.28125 -43.1875 C 107.5 -48.8125 110.109375 -56.601562 110.109375 -66.5625 C 110.109375 -76.34375 107.539062 -84.003906 102.40625 -89.546875 C 97.269531 -95.097656 90.625 -97.875 82.46875 -97.875 C 74.3125 -97.875 67.617188 -95.097656 62.390625 -89.546875 C 57.171875 -84.003906 54.5625 -76.34375 54.5625 -66.5625 C 54.5625 -56.601562 57.171875 -48.8125 62.390625 -43.1875 C 67.617188 -37.5625 74.3125 -34.75 82.46875 -34.75 Z M 82.46875 -34.75 "/></g></g></g><g clip-path="url(#52af0bcdc4)"><path fill="#000000" d="M 148.140625 315.449219 L 142.933594 341.667969 L 167.847656 341.667969 L 162.640625 315.449219 C 163.011719 315.195312 163.371094 314.921875 163.710938 314.628906 C 164.054688 314.335938 164.382812 314.027344 164.691406 313.703125 C 165 313.375 165.292969 313.035156 165.566406 312.675781 C 165.839844 312.320312 166.09375 311.949219 166.328125 311.566406 C 166.5625 311.179688 166.773438 310.785156 166.964844 310.378906 C 167.15625 309.972656 167.328125 309.558594 167.476562 309.136719 C 167.621094 308.710938 167.746094 308.28125 167.847656 307.84375 C 167.949219 307.40625 168.03125 306.964844 168.085938 306.519531 C 168.140625 306.074219 168.171875 305.625 168.175781 305.179688 C 168.183594 304.730469 168.167969 304.28125 168.128906 303.835938 C 168.085938 303.386719 168.023438 302.945312 167.933594 302.503906 C 167.847656 302.0625 167.738281 301.628906 167.601562 301.199219 C 167.46875 300.773438 167.3125 300.351562 167.132812 299.9375 C 166.953125 299.527344 166.753906 299.125 166.535156 298.734375 C 166.3125 298.34375 166.070312 297.964844 165.808594 297.601562 C 165.546875 297.234375 165.265625 296.882812 164.96875 296.546875 C 164.667969 296.210938 164.351562 295.890625 164.019531 295.589844 C 163.683594 295.285156 163.335938 295 162.972656 294.734375 C 162.609375 294.46875 162.234375 294.222656 161.84375 293.996094 C 161.453125 293.769531 161.054688 293.566406 160.640625 293.382812 C 160.230469 293.195312 159.808594 293.035156 159.382812 292.894531 C 158.953125 292.753906 158.519531 292.636719 158.078125 292.542969 C 157.636719 292.449219 157.191406 292.378906 156.742188 292.332031 C 156.292969 292.28125 155.84375 292.257812 155.390625 292.257812 C 154.941406 292.257812 154.488281 292.28125 154.039062 292.332031 C 153.589844 292.378906 153.148438 292.449219 152.707031 292.542969 C 152.265625 292.636719 151.828125 292.753906 151.398438 292.894531 C 150.972656 293.035156 150.550781 293.195312 150.140625 293.382812 C 149.726562 293.566406 149.328125 293.769531 148.9375 293.996094 C 148.546875 294.222656 148.171875 294.46875 147.808594 294.734375 C 147.445312 295 147.097656 295.285156 146.761719 295.589844 C 146.429688 295.890625 146.113281 296.210938 145.816406 296.546875 C 145.515625 296.882812 145.234375 297.234375 144.972656 297.601562 C 144.710938 297.964844 144.46875 298.34375 144.25 298.734375 C 144.027344 299.125 143.828125 299.527344 143.648438 299.9375 C 143.46875 300.351562 143.3125 300.773438 143.179688 301.199219 C 143.046875 301.628906 142.933594 302.0625 142.847656 302.503906 C 142.757812 302.945312 142.695312 303.386719 142.652344 303.835938 C 142.613281 304.28125 142.597656 304.730469 142.605469 305.179688 C 142.613281 305.625 142.644531 306.074219 142.699219 306.519531 C 142.753906 306.964844 142.832031 307.40625 142.933594 307.84375 C 143.035156 308.28125 143.160156 308.710938 143.308594 309.136719 C 143.453125 309.558594 143.625 309.972656 143.816406 310.378906 C 144.007812 310.785156 144.222656 311.179688 144.453125 311.566406 C 144.6875 311.949219 144.941406 312.320312 145.214844 312.675781 C 145.488281 313.035156 145.78125 313.375 146.089844 313.703125 C 146.402344 314.027344 146.726562 314.335938 147.070312 314.628906 C 147.414062 314.921875 147.769531 315.195312 148.140625 315.449219 Z M 148.140625 315.449219 " fill-opacity="1" fill-rule="nonzero"/></g><g fill="#ffffff" fill-opacity="1"><g transform="translate(74.219689, 568.519767)"><g><path d="M 47.515625 1.171875 C 39.046875 1.171875 30.898438 0.03125 23.078125 -2.25 C 15.253906 -4.53125 9.125 -7.429688 4.6875 -10.953125 L 12.515625 -25.8125 C 17.078125 -22.550781 22.617188 -19.941406 29.140625 -17.984375 C 35.660156 -16.035156 42.242188 -15.0625 48.890625 -15.0625 C 65.316406 -15.0625 73.53125 -19.753906 73.53125 -29.140625 C 73.53125 -32.265625 72.421875 -34.738281 70.203125 -36.5625 C 67.984375 -38.394531 65.210938 -39.734375 61.890625 -40.578125 C 58.566406 -41.421875 53.84375 -42.367188 47.71875 -43.421875 C 39.375 -44.722656 32.5625 -46.21875 27.28125 -47.90625 C 22 -49.601562 17.46875 -52.472656 13.6875 -56.515625 C 9.90625 -60.554688 8.015625 -66.226562 8.015625 -73.53125 C 8.015625 -82.914062 11.925781 -90.441406 19.75 -96.109375 C 27.570312 -101.785156 38.066406 -104.625 51.234375 -104.625 C 58.148438 -104.625 65.0625 -103.773438 71.96875 -102.078125 C 78.875 -100.390625 84.546875 -98.109375 88.984375 -95.234375 L 80.96875 -80.375 C 72.488281 -85.851562 62.515625 -88.59375 51.046875 -88.59375 C 43.085938 -88.59375 37.019531 -87.285156 32.84375 -84.671875 C 28.675781 -82.066406 26.59375 -78.613281 26.59375 -74.3125 C 26.59375 -70.925781 27.765625 -68.253906 30.109375 -66.296875 C 32.460938 -64.335938 35.363281 -62.898438 38.8125 -61.984375 C 42.269531 -61.078125 47.128906 -60.035156 53.390625 -58.859375 C 61.734375 -57.429688 68.476562 -55.898438 73.625 -54.265625 C 78.78125 -52.640625 83.179688 -49.867188 86.828125 -45.953125 C 90.484375 -42.046875 92.3125 -36.570312 92.3125 -29.53125 C 92.3125 -20.144531 88.300781 -12.679688 80.28125 -7.140625 C 72.257812 -1.597656 61.335938 1.171875 47.515625 1.171875 Z M 47.515625 1.171875 "/></g></g></g><g fill="#ffffff" fill-opacity="1"><g transform="translate(172.192577, 568.519767)"><g><path d="M 111.46875 -51.234375 C 111.46875 -49.804688 111.335938 -47.914062 111.078125 -45.5625 L 26.984375 -45.5625 C 28.160156 -36.4375 32.171875 -29.101562 39.015625 -23.5625 C 45.859375 -18.019531 54.363281 -15.25 64.53125 -15.25 C 76.914062 -15.25 86.890625 -19.421875 94.453125 -27.765625 L 104.828125 -15.640625 C 100.128906 -10.171875 94.289062 -6 87.3125 -3.125 C 80.34375 -0.257812 72.554688 1.171875 63.953125 1.171875 C 52.992188 1.171875 43.273438 -1.078125 34.796875 -5.578125 C 26.328125 -10.078125 19.78125 -16.363281 15.15625 -24.4375 C 10.53125 -32.519531 8.21875 -41.648438 8.21875 -51.828125 C 8.21875 -61.859375 10.460938 -70.914062 14.953125 -79 C 19.453125 -87.082031 25.644531 -93.375 33.53125 -97.875 C 41.425781 -102.375 50.328125 -104.625 60.234375 -104.625 C 70.140625 -104.625 78.972656 -102.375 86.734375 -97.875 C 94.492188 -93.375 100.554688 -87.082031 104.921875 -79 C 109.285156 -70.914062 111.46875 -61.660156 111.46875 -51.234375 Z M 60.234375 -88.78125 C 51.234375 -88.78125 43.703125 -86.039062 37.640625 -80.5625 C 31.578125 -75.09375 28.023438 -67.925781 26.984375 -59.0625 L 93.484375 -59.0625 C 92.441406 -67.789062 88.890625 -74.925781 82.828125 -80.46875 C 76.765625 -86.007812 69.234375 -88.78125 60.234375 -88.78125 Z M 60.234375 -88.78125 "/></g></g></g><g fill="#ffffff" fill-opacity="1"><g transform="translate(291.872021, 568.519767)"><g><path d="M 62.96875 1.171875 C 52.40625 1.171875 42.984375 -1.109375 34.703125 -5.671875 C 26.429688 -10.234375 19.945312 -16.519531 15.25 -24.53125 C 10.5625 -32.550781 8.21875 -41.648438 8.21875 -51.828125 C 8.21875 -61.992188 10.5625 -71.082031 15.25 -79.09375 C 19.945312 -87.113281 26.429688 -93.375 34.703125 -97.875 C 42.984375 -102.375 52.40625 -104.625 62.96875 -104.625 C 72.351562 -104.625 80.726562 -102.734375 88.09375 -98.953125 C 95.46875 -95.171875 101.175781 -89.695312 105.21875 -82.53125 L 90.9375 -73.34375 C 87.675781 -78.289062 83.632812 -82.003906 78.8125 -84.484375 C 73.988281 -86.960938 68.644531 -88.203125 62.78125 -88.203125 C 56 -88.203125 49.898438 -86.703125 44.484375 -83.703125 C 39.078125 -80.703125 34.84375 -76.429688 31.78125 -70.890625 C 28.71875 -65.347656 27.1875 -58.992188 27.1875 -51.828125 C 27.1875 -44.523438 28.71875 -38.101562 31.78125 -32.5625 C 34.84375 -27.019531 39.078125 -22.75 44.484375 -19.75 C 49.898438 -16.75 56 -15.25 62.78125 -15.25 C 68.644531 -15.25 73.988281 -16.488281 78.8125 -18.96875 C 83.632812 -21.445312 87.675781 -25.160156 90.9375 -30.109375 L 105.21875 -21.125 C 101.175781 -13.945312 95.46875 -8.4375 88.09375 -4.59375 C 80.726562 -0.75 72.351562 1.171875 62.96875 1.171875 Z M 62.96875 1.171875 "/></g></g></g><g fill="#ffffff" fill-opacity="1"><g transform="translate(403.533759, 568.519767)"><g><path d="M 114.40625 -103.640625 L 114.40625 0 L 96.609375 0 L 96.609375 -15.640625 C 92.828125 -10.296875 87.835938 -6.15625 81.640625 -3.21875 C 75.453125 -0.289062 68.707031 1.171875 61.40625 1.171875 C 47.582031 1.171875 36.691406 -2.640625 28.734375 -10.265625 C 20.785156 -17.890625 16.8125 -29.132812 16.8125 -44 L 16.8125 -103.640625 L 35.59375 -103.640625 L 35.59375 -46.15625 C 35.59375 -36.113281 38.003906 -28.515625 42.828125 -23.359375 C 47.648438 -18.210938 54.5625 -15.640625 63.5625 -15.640625 C 73.46875 -15.640625 81.285156 -18.640625 87.015625 -24.640625 C 92.753906 -30.640625 95.625 -39.113281 95.625 -50.0625 L 95.625 -103.640625 Z M 114.40625 -103.640625 "/></g></g></g><g fill="#ffffff" fill-opacity="1"><g transform="translate(535.92427, 568.519767)"><g><path d="M 35.78125 -86.25 C 39.039062 -92.238281 43.863281 -96.796875 50.25 -99.921875 C 56.644531 -103.054688 64.40625 -104.625 73.53125 -104.625 L 73.53125 -86.4375 C 72.488281 -86.570312 71.054688 -86.640625 69.234375 -86.640625 C 59.054688 -86.640625 51.066406 -83.609375 45.265625 -77.546875 C 39.460938 -71.484375 36.5625 -62.84375 36.5625 -51.625 L 36.5625 0 L 17.796875 0 L 17.796875 -103.640625 L 35.78125 -103.640625 Z M 35.78125 -86.25 "/></g></g></g><g fill="#ffffff" fill-opacity="1"><g transform="translate(616.10171, 568.519767)"><g><path d="M 111.46875 -51.234375 C 111.46875 -49.804688 111.335938 -47.914062 111.078125 -45.5625 L 26.984375 -45.5625 C 28.160156 -36.4375 32.171875 -29.101562 39.015625 -23.5625 C 45.859375 -18.019531 54.363281 -15.25 64.53125 -15.25 C 76.914062 -15.25 86.890625 -19.421875 94.453125 -27.765625 L 104.828125 -15.640625 C 100.128906 -10.171875 94.289062 -6 87.3125 -3.125 C 80.34375 -0.257812 72.554688 1.171875 63.953125 1.171875 C 52.992188 1.171875 43.273438 -1.078125 34.796875 -5.578125 C 26.328125 -10.078125 19.78125 -16.363281 15.15625 -24.4375 C 10.53125 -32.519531 8.21875 -41.648438 8.21875 -51.828125 C 8.21875 -61.859375 10.460938 -70.914062 14.953125 -79 C 19.453125 -87.082031 25.644531 -93.375 33.53125 -97.875 C 41.425781 -102.375 50.328125 -104.625 60.234375 -104.625 C 70.140625 -104.625 78.972656 -102.375 86.734375 -97.875 C 94.492188 -93.375 100.554688 -87.082031 104.921875 -79 C 109.285156 -70.914062 111.46875 -61.660156 111.46875 -51.234375 Z M 60.234375 -88.78125 C 51.234375 -88.78125 43.703125 -86.039062 37.640625 -80.5625 C 31.578125 -75.09375 28.023438 -67.925781 26.984375 -59.0625 L 93.484375 -59.0625 C 92.441406 -67.789062 88.890625 -74.925781 82.828125 -80.46875 C 76.765625 -86.007812 69.234375 -88.78125 60.234375 -88.78125 Z M 60.234375 -88.78125 "/></g></g></g></svg>